<?xml version="1.0" encoding="UTF-8"?>
<svg width="1410px" height="459px" viewBox="0 0 1410 459" version="1.1" xmlns="http://www.w3.org/2000/svg" xmlns:xlink="http://www.w3.org/1999/xlink">
    <!-- Generator: Sketch 53.2 (72643) - https://sketchapp.com -->
    <title>Slice</title>
    <desc>Created with Sketch.</desc>
    <g id="Page-1" stroke="none" stroke-width="1" fill="none" fill-rule="evenodd">
        <text id="DOCS" fill="#7F6E5D" font-family="Chalkduster" font-size="300" font-weight="normal">
            <tspan x="587" y="334">DOCS</tspan>
        </text>
        <g id="sloth" fill-rule="nonzero">
            <path d="M512,220.689655 C512,342.598621 397.241379,459.034483 256,459.034483 C114.758621,459.034483 0,342.598621 0,220.689655 C0,98.7806897 114.758621,0 256,0 C397.241379,0 512,98.7806897 512,220.689655 Z" id="Shape" fill="#7F6E5D"></path>
            <path d="M461.153103,264.827586 C437.583448,340.921379 354.515862,397.241379 256,397.241379 C157.484138,397.241379 74.4165517,340.921379 50.8468966,264.827586 L123.586207,264.827586 C162.588937,264.827586 194.206897,233.209626 194.206897,194.206897 C194.206897,155.204167 162.588937,123.586207 123.586207,123.586207 L82.0965517,123.586207 C112.904828,83.0675862 156.513103,52.9655172 189.793103,52.9655172 C238.344828,52.9655172 232.871724,88.2758621 256,88.2758621 C279.128276,88.2758621 282.482759,52.9655172 322.206897,52.9655172 C355.486897,52.9655172 399.095172,83.0675862 429.903448,123.586207 L388.413793,123.586207 C349.411063,123.586207 317.793103,155.204167 317.793103,194.206897 C317.793103,233.209626 349.411063,264.827586 388.413793,264.827586 L461.153103,264.827586 Z" id="Shape" fill="#CBB292"></path>
            <path d="M291.310345,234.372414 C291.310345,247.172414 275.508966,273.655172 256,273.655172 C236.491034,273.655172 220.689655,247.172414 220.689655,234.372414 C220.689655,221.572414 236.491034,211.862069 256,211.862069 C275.508966,211.862069 291.310345,221.925517 291.310345,234.372414 Z" id="Shape" fill="#547580"></path>
            <path d="M256,326.62069 C217.953103,326.62069 182.81931,315.93931 161.986207,298.01931 C158.280948,294.850338 157.846201,289.277673 161.015172,285.572414 C164.184144,281.867155 169.75681,281.432408 173.462069,284.601379 C191.117241,299.608276 222.543448,308.965517 256,308.965517 C289.456552,308.965517 321.05931,299.608276 338.537931,284.601379 C340.934813,282.551414 344.243268,281.93589 347.217031,282.986668 C350.190794,284.037447 352.378081,286.59489 352.954962,289.695634 C353.531843,292.796377 352.410675,295.969345 350.013793,298.01931 C329.268966,315.93931 294.046897,326.62069 256,326.62069 L256,326.62069 Z" id="Shape" fill="#802D40"></path>
            <path d="M256,370.758621 C251.124659,370.758621 247.172414,366.806375 247.172414,361.931034 L247.172414,353.103448 C247.172414,348.228107 251.124659,344.275862 256,344.275862 C260.875341,344.275862 264.827586,348.228107 264.827586,353.103448 L264.827586,361.931034 C264.827586,366.806375 260.875341,370.758621 256,370.758621 Z" id="Shape" fill="#7F6E5D"></path>
            <circle id="Oval" fill="#2C3E50" cx="123.586207" cy="194.206897" r="35.3103448"></circle>
            <circle id="Oval" fill="#2C3E50" cx="388.413793" cy="194.206897" r="35.3103448"></circle>
            <circle id="Oval" fill="#ECF0F1" cx="114.758621" cy="185.37931" r="17.6551724"></circle>
            <circle id="Oval" fill="#ECF0F1" cx="379.586207" cy="185.37931" r="17.6551724"></circle>
            <ellipse id="Oval" fill="#BDC3C7" cx="256" cy="229.517241" rx="17.6551724" ry="8.82758621"></ellipse>
        </g>
    </g>
</svg>