<svg height="512" viewBox="0 0 58 52" width="512" xmlns="http://www.w3.org/2000/svg"><g id="049---Sloth" fill="none"><path id="Shape" d="m58 25c0 13.81-13 27-29 27s-29-13.19-29-27 13-25 29-25 29 11.19 29 25z" fill="#7f6e5d"/><path id="Shape" d="m52.24 30c-2.67 8.62-12.08 15-23.24 15s-20.57-6.38-23.24-15h8.24c4.418278 0 8-3.581722 8-8s-3.581722-8-8-8h-4.7c3.49-4.59 8.43-8 12.2-8 5.5 0 4.88 4 7.5 4s3-4 7.5-4c3.77 0 8.71 3.41 12.2 8h-4.7c-4.418278 0-8 3.581722-8 8s3.581722 8 8 8z" fill="#cbb292"/><path id="Shape" d="m33 26.55c0 1.45-1.79 4.45-4 4.45s-4-3-4-4.45 1.79-2.55 4-2.55 4 1.14 4 2.55z" fill="#547580"/><path id="Shape" d="m29 37c-4.31 0-8.29-1.21-10.65-3.24-.4197364-.3589851-.468985-.9902636-.11-1.41.3589851-.4197364.9902636-.468985 1.41-.11 2 1.7 5.56 2.76 9.35 2.76s7.37-1.06 9.35-2.76c.2715218-.2322226.6463077-.30195.9831793-.1829165s.5846502.4087439.65.76-.0616575.7106939-.3331793.9429165c-2.35 2.03-6.34 3.24-10.65 3.24z" fill="#802d40"/><path id="Shape" d="m29 42c-.5522847 0-1-.4477153-1-1v-1c0-.5522847.4477153-1 1-1s1 .4477153 1 1v1c0 .5522847-.4477153 1-1 1z" fill="#7f6e5d"/><circle id="Oval" cx="14" cy="22" fill="#2c3e50" r="4"/><circle id="Oval" cx="44" cy="22" fill="#2c3e50" r="4"/><circle id="Oval" cx="13" cy="21" fill="#ecf0f1" r="2"/><circle id="Oval" cx="43" cy="21" fill="#ecf0f1" r="2"/><ellipse id="Oval" cx="29" cy="26" fill="#bdc3c7" rx="2" ry="1"/></g></svg>